# xmcd CD database file
#
# Track frame offsets:
#	150
#	13864
#	26038
#	38692
#	53841
#	66115
#	78784
#	91594
#	105833
#	117096
#	130559
#	143263
#	155376
#	169701
#	183971
#	198973
#	212929
#	228011
#	241865
#	254755
#	267698
#	281413
#	294146
#	313305
#	330183
#	341667
#
# Disc length: 4752 seconds
#
# Revision: 0
# Processed by: cddbd v1.5.2PL0 Copyright (c) Steve Scherf et al.
# Submitted via: CDex 1.51
#
DISCID=56128e1a
DTITLE=Django Reinhardt - Plays Django Reinhardt (Disk 2, 1938-1942)
DYEAR=2007
DGENRE=Jazz
TTITLE0=Appel Indirect (Appel Direct)
TTITLE1=Improvisation No 2
TTITLE2=Hungaria
TTITLE3=Swing 39
TTITLE4=Twelfth Year
TTITLE5=Hungaria
TTITLE6=Stockholm
TTITLE7=Echoes of Spain
TTITLE8=Naguine
TTITLE9=H.C.Q. Strut
TTITLE10=Tears
TTITLE11=Rythme Futur
TTITLE12=Blues en Mineur
TTITLE13=Swing 41
TTITLE14=Nuages
TTITLE15=Vendredi 13
TTITLE16=Mabel
TTITLE17=Swing De Paris
TTITLE18=Oiseaux Des Iles
TTITLE19=Dinette
TTITLE20=Crepuscule
TTITLE21=Swing 42
TTITLE22=Nympheas
TTITLE23=Feerie
TTITLE24=Belleville
TTITLE25=Lentement Masemoiselle
EXTD=YEAR: 2007
EXTT0=
EXTT1=
EXTT2=
EXTT3=
EXTT4=
EXTT5=
EXTT6=
EXTT7=
EXTT8=
EXTT9=
EXTT10=
EXTT11=
EXTT12=
EXTT13=
EXTT14=
EXTT15=
EXTT16=
EXTT17=
EXTT18=
EXTT19=
EXTT20=
EXTT21=
EXTT22=
EXTT23=
EXTT24=
EXTT25=
PLAYORDER=
